<?xml version="1.0" standalone="no"?>
<!DOCTYPE svg PUBLIC "-//W3C//DTD SVG 20010904//EN"
 "http://www.w3.org/TR/2001/REC-SVG-20010904/DTD/svg10.dtd">
<svg version="1.0" xmlns="http://www.w3.org/2000/svg"
 width="512.000000pt" height="512.000000pt" viewBox="0 0 512.000000 512.000000"
 preserveAspectRatio="xMidYMid meet">

<g transform="translate(0.000000,512.000000) scale(0.100000,-0.100000)"
fill="#000000" stroke="none">
<path d="M2470 4610 c0 -400 -3 -511 -12 -514 -7 -2 -62 -9 -123 -15 -740 -76
-1389 -566 -1671 -1263 -217 -538 -199 -1132 50 -1653 159 -332 403 -614 710
-819 600 -401 1362 -455 2016 -143 846 404 1309 1346 1114 2268 -65 310 -227
647 -418 872 -31 37 -56 68 -56 70 0 2 42 7 93 10 214 16 264 41 254 132 -14
132 -136 400 -252 556 -160 215 -413 403 -665 494 -199 72 -465 102 -665 76
l-90 -12 -23 28 c-13 15 -38 57 -55 93 -30 61 -32 73 -35 198 l-4 132 -84 0
-84 0 0 -510z m285 -380 c20 -41 48 -92 62 -114 l25 -39 -68 6 c-38 4 -84 7
-101 7 l-33 0 0 223 1 222 38 -115 c21 -64 55 -149 76 -190z m400 279 c290
-35 537 -153 748 -358 53 -51 97 -99 97 -106 0 -15 -98 -33 -257 -45 -143 -12
-342 -2 -539 26 l-120 17 -46 61 c-26 33 -65 92 -87 130 -41 71 -111 235 -111
261 0 23 173 31 315 14z m-695 -704 l0 -115 -25 10 c-14 5 -38 16 -55 25 -16
8 -31 15 -34 15 -6 0 -84 -114 -92 -135 -8 -21 100 -71 197 -91 133 -28 301 6
407 82 2 1 -18 34 -44 73 -44 67 -65 83 -78 62 -4 -5 -26 -16 -51 -24 l-45
-16 0 115 c0 63 3 114 8 114 33 0 203 -23 272 -36 84 -17 86 -17 160 -88 90
-85 230 -181 347 -237 97 -46 266 -104 335 -114 44 -7 55 -15 136 -100 264
-275 429 -601 499 -985 28 -150 25 -499 -4 -645 -79 -390 -234 -689 -498 -963
-269 -280 -591 -457 -979 -538 -151 -31 -421 -43 -572 -25 -363 45 -698 185
-975 409 -100 81 -259 248 -332 349 -357 499 -452 1122 -258 1702 182 545 616
981 1164 1170 150 52 354 93 490 100 l27 1 0 -115z"/>
<path d="M1405 3306 l-70 -65 62 -62 61 -62 61 54 c34 29 61 57 61 62 0 6
-100 137 -104 137 -1 0 -32 -29 -71 -64z"/>
<path d="M1173 3051 c-117 -161 -221 -376 -269 -557 -31 -117 -55 -256 -46
-265 4 -4 43 -10 87 -14 l80 -7 23 118 c27 142 69 268 129 389 47 94 119 210
159 258 l24 29 -66 54 c-36 30 -69 54 -72 54 -4 0 -26 -27 -49 -59z"/>
<path d="M3570 2900 l0 -90 90 0 90 0 0 90 0 90 -90 0 -90 0 0 -90z"/>
<path d="M3910 2390 l0 -90 90 0 90 0 0 90 0 90 -90 0 -90 0 0 -90z"/>
<path d="M3062 1193 l3 -88 85 0 85 0 3 88 3 87 -91 0 -91 0 3 -87z"/>
<path d="M3570 1110 l0 -90 90 0 90 0 0 90 0 90 -90 0 -90 0 0 -90z"/>
<path d="M2802 683 l3 -88 88 -3 87 -3 0 91 0 90 -90 0 -91 0 3 -87z"/>
</g>
</svg>
